<mxfile host="app.diagrams.net" modified="2021-10-24T12:29:54.766Z" agent="5.0 (Macintosh; Intel Mac OS X 10_13_6) AppleWebKit/605.1.15 (KHTML, like Gecko) Version/13.1.2 Safari/605.1.15" etag="9yHngOqE3Thnpm8gWmkY" version="15.5.9" type="github">
  <diagram id="uKatzStPybd7p6dtbr8B" name="Page-1">
    <mxGraphModel dx="1261" dy="719" grid="1" gridSize="10" guides="1" tooltips="1" connect="1" arrows="1" fold="1" page="1" pageScale="1" pageWidth="1169" pageHeight="1654" math="0" shadow="0">
      <root>
        <mxCell id="0" />
        <mxCell id="1" parent="0" />
        <mxCell id="Yb7FqptrBR93IivAne0Q-1" value="" style="endArrow=none;dashed=1;html=1;dashPattern=1 3;strokeWidth=2;rounded=0;" parent="1" edge="1">
          <mxGeometry width="50" height="50" relative="1" as="geometry">
            <mxPoint x="320" y="810" as="sourcePoint" />
            <mxPoint x="320" y="50" as="targetPoint" />
          </mxGeometry>
        </mxCell>
        <mxCell id="Yb7FqptrBR93IivAne0Q-2" value="&lt;font style=&quot;font-size: 17px&quot;&gt;&lt;b&gt;Data source and preparation&lt;/b&gt;&lt;/font&gt;" style="text;html=1;resizable=0;autosize=1;align=center;verticalAlign=middle;points=[];fillColor=none;strokeColor=none;rounded=0;" parent="1" vertex="1">
          <mxGeometry x="40" y="30" width="250" height="20" as="geometry" />
        </mxCell>
        <mxCell id="ARdzz1YE6T8RBa4mAH9I-1" value="&lt;font style=&quot;font-size: 17px&quot;&gt;&lt;b&gt;Data load and aggregation&lt;/b&gt;&lt;/font&gt;" style="text;html=1;resizable=0;autosize=1;align=center;verticalAlign=middle;points=[];fillColor=none;strokeColor=none;rounded=0;" vertex="1" parent="1">
          <mxGeometry x="470" y="30" width="230" height="20" as="geometry" />
        </mxCell>
        <mxCell id="ARdzz1YE6T8RBa4mAH9I-3" value="&lt;font style=&quot;font-size: 17px&quot;&gt;&lt;b&gt;Visualization&lt;/b&gt;&lt;/font&gt;" style="text;html=1;resizable=0;autosize=1;align=center;verticalAlign=middle;points=[];fillColor=none;strokeColor=none;rounded=0;" vertex="1" parent="1">
          <mxGeometry x="945" y="30" width="120" height="20" as="geometry" />
        </mxCell>
        <mxCell id="ARdzz1YE6T8RBa4mAH9I-4" value="&lt;font style=&quot;font-size: 12px&quot;&gt;Games database&lt;br&gt;(pgn)&lt;br&gt;&lt;/font&gt;" style="whiteSpace=wrap;html=1;aspect=fixed;fontSize=17;" vertex="1" parent="1">
          <mxGeometry x="20" y="100" width="80" height="80" as="geometry" />
        </mxCell>
        <mxCell id="ARdzz1YE6T8RBa4mAH9I-5" value="pgn2csv" style="html=1;shadow=0;dashed=0;align=center;verticalAlign=middle;shape=mxgraph.arrows2.arrow;dy=0.6;dx=40;notch=0;fontSize=12;" vertex="1" parent="1">
          <mxGeometry x="120" y="115" width="75" height="50" as="geometry" />
        </mxCell>
        <mxCell id="ARdzz1YE6T8RBa4mAH9I-30" style="edgeStyle=orthogonalEdgeStyle;rounded=0;orthogonalLoop=1;jettySize=auto;html=1;exitX=1;exitY=0.5;exitDx=0;exitDy=0;entryX=0;entryY=0.5;entryDx=0;entryDy=0;fontSize=12;" edge="1" parent="1" source="ARdzz1YE6T8RBa4mAH9I-6" target="ARdzz1YE6T8RBa4mAH9I-29">
          <mxGeometry relative="1" as="geometry" />
        </mxCell>
        <mxCell id="ARdzz1YE6T8RBa4mAH9I-31" value="3. load &lt;br&gt;games database" style="edgeLabel;html=1;align=center;verticalAlign=middle;resizable=0;points=[];fontSize=12;" vertex="1" connectable="0" parent="ARdzz1YE6T8RBa4mAH9I-30">
          <mxGeometry x="0.2571" y="2" relative="1" as="geometry">
            <mxPoint as="offset" />
          </mxGeometry>
        </mxCell>
        <mxCell id="ARdzz1YE6T8RBa4mAH9I-6" value="&lt;font style=&quot;font-size: 12px&quot;&gt;Games &amp;nbsp;database&lt;br&gt;(csv)&lt;br&gt;&lt;/font&gt;" style="whiteSpace=wrap;html=1;aspect=fixed;fontSize=17;" vertex="1" parent="1">
          <mxGeometry x="210" y="100" width="80" height="80" as="geometry" />
        </mxCell>
        <mxCell id="ARdzz1YE6T8RBa4mAH9I-7" value="&lt;font style=&quot;font-size: 12px&quot;&gt;ECO codes&lt;br&gt;&lt;/font&gt;" style="whiteSpace=wrap;html=1;aspect=fixed;fontSize=17;" vertex="1" parent="1">
          <mxGeometry x="20" y="220" width="80" height="80" as="geometry" />
        </mxCell>
        <mxCell id="ARdzz1YE6T8RBa4mAH9I-8" value="classification" style="html=1;shadow=0;dashed=0;align=center;verticalAlign=middle;shape=mxgraph.arrows2.arrow;dy=0.6;dx=40;notch=0;fontSize=12;" vertex="1" parent="1">
          <mxGeometry x="120" y="235" width="75" height="50" as="geometry" />
        </mxCell>
        <mxCell id="ARdzz1YE6T8RBa4mAH9I-28" value="2. loading&lt;br&gt;ECO codes" style="edgeStyle=orthogonalEdgeStyle;rounded=0;orthogonalLoop=1;jettySize=auto;html=1;fontSize=12;" edge="1" parent="1" source="ARdzz1YE6T8RBa4mAH9I-9" target="ARdzz1YE6T8RBa4mAH9I-27">
          <mxGeometry relative="1" as="geometry" />
        </mxCell>
        <mxCell id="ARdzz1YE6T8RBa4mAH9I-9" value="&lt;font style=&quot;font-size: 12px&quot;&gt;ECO code with opening classification&lt;br&gt;&lt;/font&gt;" style="whiteSpace=wrap;html=1;aspect=fixed;fontSize=17;" vertex="1" parent="1">
          <mxGeometry x="210" y="220" width="80" height="80" as="geometry" />
        </mxCell>
        <mxCell id="ARdzz1YE6T8RBa4mAH9I-25" value="1.1 load &lt;br&gt;ratings / country" style="edgeStyle=orthogonalEdgeStyle;rounded=0;orthogonalLoop=1;jettySize=auto;html=1;exitX=1;exitY=0.5;exitDx=0;exitDy=0;entryX=0;entryY=0.5;entryDx=0;entryDy=0;fontSize=12;" edge="1" parent="1" source="ARdzz1YE6T8RBa4mAH9I-10" target="ARdzz1YE6T8RBa4mAH9I-17">
          <mxGeometry relative="1" as="geometry" />
        </mxCell>
        <mxCell id="ARdzz1YE6T8RBa4mAH9I-10" value="&lt;font style=&quot;font-size: 12px&quot;&gt;Player rating and country (older)&lt;br&gt;&lt;/font&gt;" style="whiteSpace=wrap;html=1;aspect=fixed;fontSize=17;" vertex="1" parent="1">
          <mxGeometry x="210" y="460" width="80" height="80" as="geometry" />
        </mxCell>
        <mxCell id="ARdzz1YE6T8RBa4mAH9I-24" value="1. load players" style="edgeStyle=orthogonalEdgeStyle;rounded=0;orthogonalLoop=1;jettySize=auto;html=1;exitX=1;exitY=0.5;exitDx=0;exitDy=0;fontSize=12;" edge="1" parent="1" source="ARdzz1YE6T8RBa4mAH9I-11" target="ARdzz1YE6T8RBa4mAH9I-14">
          <mxGeometry relative="1" as="geometry" />
        </mxCell>
        <mxCell id="ARdzz1YE6T8RBa4mAH9I-11" value="&lt;font style=&quot;font-size: 12px&quot;&gt;Player database&lt;br&gt;&lt;/font&gt;" style="whiteSpace=wrap;html=1;aspect=fixed;fontSize=17;" vertex="1" parent="1">
          <mxGeometry x="210" y="350" width="80" height="80" as="geometry" />
        </mxCell>
        <mxCell id="ARdzz1YE6T8RBa4mAH9I-26" value="1.1. load &lt;br&gt;ratings / country" style="edgeStyle=orthogonalEdgeStyle;rounded=0;orthogonalLoop=1;jettySize=auto;html=1;exitX=1;exitY=0.5;exitDx=0;exitDy=0;fontSize=12;" edge="1" parent="1" source="ARdzz1YE6T8RBa4mAH9I-12" target="ARdzz1YE6T8RBa4mAH9I-18">
          <mxGeometry relative="1" as="geometry" />
        </mxCell>
        <mxCell id="ARdzz1YE6T8RBa4mAH9I-12" value="&lt;font style=&quot;font-size: 12px&quot;&gt;Player rating and country (later)&lt;br&gt;&lt;/font&gt;" style="whiteSpace=wrap;html=1;aspect=fixed;fontSize=17;" vertex="1" parent="1">
          <mxGeometry x="210" y="570" width="80" height="80" as="geometry" />
        </mxCell>
        <mxCell id="ARdzz1YE6T8RBa4mAH9I-20" value="1.2.merging&lt;br&gt;with&lt;br&gt;ratings" style="edgeStyle=orthogonalEdgeStyle;rounded=0;orthogonalLoop=1;jettySize=auto;html=1;fontSize=12;" edge="1" parent="1" source="ARdzz1YE6T8RBa4mAH9I-14" target="ARdzz1YE6T8RBa4mAH9I-19">
          <mxGeometry relative="1" as="geometry" />
        </mxCell>
        <mxCell id="ARdzz1YE6T8RBa4mAH9I-14" value="&lt;font style=&quot;font-size: 12px&quot;&gt;players_all&lt;br&gt;&lt;/font&gt;" style="whiteSpace=wrap;html=1;aspect=fixed;fontSize=17;" vertex="1" parent="1">
          <mxGeometry x="406" y="350" width="80" height="80" as="geometry" />
        </mxCell>
        <mxCell id="ARdzz1YE6T8RBa4mAH9I-22" value="1.2. merging with players" style="edgeStyle=orthogonalEdgeStyle;rounded=0;orthogonalLoop=1;jettySize=auto;html=1;fontSize=12;entryX=0.5;entryY=1;entryDx=0;entryDy=0;" edge="1" parent="1" source="ARdzz1YE6T8RBa4mAH9I-17" target="ARdzz1YE6T8RBa4mAH9I-19">
          <mxGeometry x="0.2632" y="-10" relative="1" as="geometry">
            <mxPoint as="offset" />
          </mxGeometry>
        </mxCell>
        <mxCell id="ARdzz1YE6T8RBa4mAH9I-17" value="&lt;font style=&quot;font-size: 12px&quot;&gt;grouped_&lt;br&gt;earlier&lt;br&gt;&lt;/font&gt;" style="whiteSpace=wrap;html=1;aspect=fixed;fontSize=17;" vertex="1" parent="1">
          <mxGeometry x="406" y="460" width="80" height="80" as="geometry" />
        </mxCell>
        <mxCell id="ARdzz1YE6T8RBa4mAH9I-23" value="1.2. merging with players" style="edgeStyle=orthogonalEdgeStyle;rounded=0;orthogonalLoop=1;jettySize=auto;html=1;fontSize=12;" edge="1" parent="1" source="ARdzz1YE6T8RBa4mAH9I-18">
          <mxGeometry relative="1" as="geometry">
            <mxPoint x="606" y="440" as="targetPoint" />
          </mxGeometry>
        </mxCell>
        <mxCell id="ARdzz1YE6T8RBa4mAH9I-18" value="&lt;font style=&quot;font-size: 12px&quot;&gt;grouped_&lt;br&gt;later&lt;br&gt;&lt;/font&gt;" style="whiteSpace=wrap;html=1;aspect=fixed;fontSize=17;" vertex="1" parent="1">
          <mxGeometry x="406" y="570" width="80" height="80" as="geometry" />
        </mxCell>
        <mxCell id="ARdzz1YE6T8RBa4mAH9I-43" value="5. merging&lt;br&gt;with&lt;br&gt;games" style="edgeStyle=orthogonalEdgeStyle;rounded=0;orthogonalLoop=1;jettySize=auto;html=1;exitX=1;exitY=0.5;exitDx=0;exitDy=0;entryX=0;entryY=0.5;entryDx=0;entryDy=0;fontSize=12;" edge="1" parent="1" source="ARdzz1YE6T8RBa4mAH9I-19" target="ARdzz1YE6T8RBa4mAH9I-42">
          <mxGeometry relative="1" as="geometry" />
        </mxCell>
        <mxCell id="ARdzz1YE6T8RBa4mAH9I-19" value="&lt;font style=&quot;font-size: 12px&quot;&gt;players_&lt;br&gt;with_&lt;br&gt;rating&lt;br&gt;&lt;/font&gt;" style="whiteSpace=wrap;html=1;aspect=fixed;fontSize=17;" vertex="1" parent="1">
          <mxGeometry x="566" y="350" width="80" height="80" as="geometry" />
        </mxCell>
        <mxCell id="ARdzz1YE6T8RBa4mAH9I-47" value="3.1. merge codes" style="edgeStyle=orthogonalEdgeStyle;rounded=0;orthogonalLoop=1;jettySize=auto;html=1;exitX=0.5;exitY=0;exitDx=0;exitDy=0;fontSize=12;" edge="1" parent="1" source="ARdzz1YE6T8RBa4mAH9I-27" target="ARdzz1YE6T8RBa4mAH9I-29">
          <mxGeometry relative="1" as="geometry" />
        </mxCell>
        <mxCell id="ARdzz1YE6T8RBa4mAH9I-27" value="&lt;font style=&quot;font-size: 12px&quot;&gt;eco_codes&lt;/font&gt;" style="whiteSpace=wrap;html=1;fontSize=17;" vertex="1" parent="1">
          <mxGeometry x="407" y="225" width="80" height="70" as="geometry" />
        </mxCell>
        <mxCell id="ARdzz1YE6T8RBa4mAH9I-34" value="4.grouping&lt;br&gt;for&lt;br&gt;white" style="edgeStyle=orthogonalEdgeStyle;rounded=0;orthogonalLoop=1;jettySize=auto;html=1;exitX=1;exitY=0.5;exitDx=0;exitDy=0;entryX=0;entryY=0.5;entryDx=0;entryDy=0;fontSize=12;" edge="1" parent="1" source="ARdzz1YE6T8RBa4mAH9I-29" target="ARdzz1YE6T8RBa4mAH9I-32">
          <mxGeometry relative="1" as="geometry" />
        </mxCell>
        <mxCell id="ARdzz1YE6T8RBa4mAH9I-35" style="edgeStyle=orthogonalEdgeStyle;rounded=0;orthogonalLoop=1;jettySize=auto;html=1;exitX=1;exitY=0.5;exitDx=0;exitDy=0;entryX=-0.012;entryY=0.675;entryDx=0;entryDy=0;entryPerimeter=0;fontSize=12;" edge="1" parent="1" source="ARdzz1YE6T8RBa4mAH9I-29" target="ARdzz1YE6T8RBa4mAH9I-33">
          <mxGeometry relative="1" as="geometry">
            <Array as="points">
              <mxPoint x="527" y="140" />
              <mxPoint x="527" y="269" />
            </Array>
          </mxGeometry>
        </mxCell>
        <mxCell id="ARdzz1YE6T8RBa4mAH9I-36" value="4. grouping&lt;br&gt;for&lt;br&gt;black" style="edgeLabel;html=1;align=center;verticalAlign=middle;resizable=0;points=[];fontSize=12;" vertex="1" connectable="0" parent="ARdzz1YE6T8RBa4mAH9I-35">
          <mxGeometry x="0.1344" y="-3" relative="1" as="geometry">
            <mxPoint as="offset" />
          </mxGeometry>
        </mxCell>
        <mxCell id="ARdzz1YE6T8RBa4mAH9I-29" value="&lt;font style=&quot;font-size: 12px&quot;&gt;games_all&lt;br&gt;&lt;/font&gt;" style="whiteSpace=wrap;html=1;aspect=fixed;fontSize=17;" vertex="1" parent="1">
          <mxGeometry x="407" y="100" width="80" height="80" as="geometry" />
        </mxCell>
        <mxCell id="ARdzz1YE6T8RBa4mAH9I-38" style="edgeStyle=orthogonalEdgeStyle;rounded=0;orthogonalLoop=1;jettySize=auto;html=1;exitX=1;exitY=0.5;exitDx=0;exitDy=0;fontSize=12;" edge="1" parent="1" source="ARdzz1YE6T8RBa4mAH9I-32" target="ARdzz1YE6T8RBa4mAH9I-37">
          <mxGeometry relative="1" as="geometry" />
        </mxCell>
        <mxCell id="ARdzz1YE6T8RBa4mAH9I-32" value="&lt;font style=&quot;font-size: 12px&quot;&gt;games_&lt;br&gt;white_&lt;br&gt;group&lt;br&gt;&lt;/font&gt;" style="whiteSpace=wrap;html=1;aspect=fixed;fontSize=17;" vertex="1" parent="1">
          <mxGeometry x="567" y="100" width="80" height="80" as="geometry" />
        </mxCell>
        <mxCell id="ARdzz1YE6T8RBa4mAH9I-41" value="4.1. &lt;br&gt;merging color &lt;br&gt;aggregates" style="edgeStyle=orthogonalEdgeStyle;rounded=0;orthogonalLoop=1;jettySize=auto;html=1;exitX=1;exitY=0.5;exitDx=0;exitDy=0;fontSize=12;" edge="1" parent="1" source="ARdzz1YE6T8RBa4mAH9I-33">
          <mxGeometry relative="1" as="geometry">
            <mxPoint x="717" y="140" as="targetPoint" />
            <Array as="points">
              <mxPoint x="677" y="255" />
              <mxPoint x="677" y="140" />
            </Array>
          </mxGeometry>
        </mxCell>
        <mxCell id="ARdzz1YE6T8RBa4mAH9I-33" value="&lt;font style=&quot;font-size: 12px&quot;&gt;games_&lt;br&gt;black_&lt;br&gt;group&lt;br&gt;&lt;/font&gt;" style="whiteSpace=wrap;html=1;aspect=fixed;fontSize=17;" vertex="1" parent="1">
          <mxGeometry x="567" y="215" width="80" height="80" as="geometry" />
        </mxCell>
        <mxCell id="ARdzz1YE6T8RBa4mAH9I-44" style="edgeStyle=orthogonalEdgeStyle;rounded=0;orthogonalLoop=1;jettySize=auto;html=1;exitX=0.5;exitY=1;exitDx=0;exitDy=0;fontSize=12;" edge="1" parent="1" source="ARdzz1YE6T8RBa4mAH9I-37">
          <mxGeometry relative="1" as="geometry">
            <mxPoint x="806" y="390" as="targetPoint" />
            <Array as="points">
              <mxPoint x="757" y="390" />
            </Array>
          </mxGeometry>
        </mxCell>
        <mxCell id="ARdzz1YE6T8RBa4mAH9I-45" value="5. merging with players" style="edgeLabel;html=1;align=center;verticalAlign=middle;resizable=0;points=[];fontSize=12;" vertex="1" connectable="0" parent="ARdzz1YE6T8RBa4mAH9I-44">
          <mxGeometry x="-0.2819" y="3" relative="1" as="geometry">
            <mxPoint as="offset" />
          </mxGeometry>
        </mxCell>
        <mxCell id="ARdzz1YE6T8RBa4mAH9I-37" value="&lt;font style=&quot;font-size: 12px&quot;&gt;games_&lt;br&gt;merged_&lt;br&gt;for_id_year&lt;br&gt;&lt;/font&gt;" style="whiteSpace=wrap;html=1;aspect=fixed;fontSize=17;" vertex="1" parent="1">
          <mxGeometry x="717" y="100" width="80" height="80" as="geometry" />
        </mxCell>
        <mxCell id="ARdzz1YE6T8RBa4mAH9I-42" value="&lt;font style=&quot;font-size: 12px&quot;&gt;games_&lt;br&gt;merged_for_&lt;br&gt;id_year_&lt;br&gt;player&lt;br&gt;&lt;/font&gt;" style="whiteSpace=wrap;html=1;aspect=fixed;fontSize=17;" vertex="1" parent="1">
          <mxGeometry x="806" y="350" width="80" height="80" as="geometry" />
        </mxCell>
        <mxCell id="ARdzz1YE6T8RBa4mAH9I-48" value="" style="endArrow=none;dashed=1;html=1;dashPattern=1 3;strokeWidth=2;rounded=0;" edge="1" parent="1">
          <mxGeometry width="50" height="50" relative="1" as="geometry">
            <mxPoint x="910" y="810" as="sourcePoint" />
            <mxPoint x="910" y="60" as="targetPoint" />
          </mxGeometry>
        </mxCell>
        <mxCell id="ARdzz1YE6T8RBa4mAH9I-49" value="&lt;font style=&quot;font-size: 12px&quot;&gt;age_variation&lt;br&gt;&lt;/font&gt;" style="whiteSpace=wrap;html=1;aspect=fixed;fontSize=17;" vertex="1" parent="1">
          <mxGeometry x="940" y="215" width="80" height="80" as="geometry" />
        </mxCell>
        <mxCell id="ARdzz1YE6T8RBa4mAH9I-52" value="&lt;font style=&quot;font-size: 12px&quot;&gt;country data&lt;br&gt;&lt;/font&gt;" style="whiteSpace=wrap;html=1;aspect=fixed;fontSize=17;" vertex="1" parent="1">
          <mxGeometry x="20" y="700" width="80" height="80" as="geometry" />
        </mxCell>
        <mxCell id="ARdzz1YE6T8RBa4mAH9I-53" value="mapping &lt;br&gt;names" style="html=1;shadow=0;dashed=0;align=center;verticalAlign=middle;shape=mxgraph.arrows2.arrow;dy=0.6;dx=40;notch=0;fontSize=12;" vertex="1" parent="1">
          <mxGeometry x="120" y="715" width="75" height="50" as="geometry" />
        </mxCell>
        <mxCell id="ARdzz1YE6T8RBa4mAH9I-56" value="7. load country data" style="edgeStyle=orthogonalEdgeStyle;rounded=0;orthogonalLoop=1;jettySize=auto;html=1;exitX=1;exitY=0.5;exitDx=0;exitDy=0;fontSize=12;" edge="1" parent="1" source="ARdzz1YE6T8RBa4mAH9I-54" target="ARdzz1YE6T8RBa4mAH9I-55">
          <mxGeometry relative="1" as="geometry" />
        </mxCell>
        <mxCell id="ARdzz1YE6T8RBa4mAH9I-54" value="&lt;font style=&quot;font-size: 12px&quot;&gt;mapped&lt;br&gt;country&lt;br&gt;data&lt;br&gt;&lt;/font&gt;" style="whiteSpace=wrap;html=1;aspect=fixed;fontSize=17;" vertex="1" parent="1">
          <mxGeometry x="210" y="700" width="80" height="80" as="geometry" />
        </mxCell>
        <mxCell id="ARdzz1YE6T8RBa4mAH9I-55" value="&lt;font style=&quot;font-size: 12px&quot;&gt;country_list&lt;br&gt;&lt;/font&gt;" style="whiteSpace=wrap;html=1;aspect=fixed;fontSize=17;" vertex="1" parent="1">
          <mxGeometry x="940" y="700" width="80" height="80" as="geometry" />
        </mxCell>
      </root>
    </mxGraphModel>
  </diagram>
</mxfile>
